<svg width="41" height="31" viewBox="0 0 41 31" fill="none" xmlns="http://www.w3.org/2000/svg">
<path d="M31.1811 17.0462L40.3141 18.0703C40.4403 17.7596 40.5452 17.4394 40.628 17.1123L31.2806 16.0551V15.7743L27.2155 15.3118L31.2882 14.8493V14.5438L40.5897 13.4949C40.516 13.186 40.424 12.8826 40.3141 12.5864L31.1887 13.6105V13.2884L27.2844 13.7344L31.0203 12.4213L30.9208 12.0909L38.3084 9.50589C38.14 9.30768 37.9256 9.06817 37.6653 8.79563L30.6605 11.2733L30.561 10.9264L26.9782 12.1817L30.2394 10.1501L30.0557 9.81147L35.2232 6.59053C35.0088 6.4171 34.7792 6.2354 34.5342 6.05371L29.6653 9.08469L29.4739 8.7213L26.3504 10.6621L29.0375 8.0606L28.7696 7.73851L32.1916 4.43498C31.9772 4.29458 31.7552 4.15418 31.5256 4.02204L28.249 7.13561L27.9581 6.797L25.4011 9.27465L27.4298 6.26844L27.07 5.98764L29.2672 2.73367L28.6318 2.41157L26.5341 5.54166L26.159 5.24435L24.2375 8.11015L25.5772 4.8727L25.1102 4.65797L26.4499 1.404L25.8451 1.16449L24.5207 4.37717L24.0537 4.15418L22.7906 7.22646L23.4336 3.92294L22.9284 3.83209L23.6021 0.412941L23.0202 0.2808L22.3466 3.69995L21.8107 3.57606L21.1753 6.68964V3.50173H20.6394V0H20.0882V3.50173H19.4987V8.36618H19.3303L18.404 3.65865L19.0011 3.51825L18.3351 0.123882C17.7142 0.217275 17.1002 0.358028 16.4977 0.545082L17.1637 3.93945L17.7456 3.80731V3.86512L18.6642 8.52309C18.4499 8.58091 18.2432 8.65523 18.0288 8.73782L16.2145 4.33588L16.735 4.08811L15.4336 0.933245L15.3341 0.97454C14.7752 1.18927 14.2393 1.41226 13.7187 1.63524L15.0661 4.93877L15.5714 4.69926V4.74882L17.3704 9.10121C17.1867 9.20032 17.0106 9.31594 16.8346 9.43156L14.2317 5.48385L14.6451 5.1535L12.601 2.18033C12.0269 2.45287 11.4757 2.73367 10.9474 3.00621L13.1982 6.30973L13.6039 5.98764L16.2298 9.89406C16.0843 10.0262 15.9465 10.1583 15.8164 10.2987L12.4862 7.06954L12.8001 6.6979L9.69193 3.68343C9.13307 4.00552 8.60484 4.33587 8.10723 4.66623L11.6441 8.10189L11.9503 7.73025L15.2805 10.9677C15.1733 11.1081 15.0661 11.265 14.9666 11.4219L11.0929 9.0021L11.2996 8.60568L6.62971 5.69858C6.07851 6.10326 5.5809 6.52446 5.0986 6.87133L10.4575 10.1749L10.6642 9.77843L14.5532 12.1983C14.4766 12.3567 14.4076 12.5194 14.3465 12.6855L10.0747 11.2072L10.1972 10.8108L3.40672 8.43225C2.80193 9.07643 2.3426 9.61326 2.11293 9.85276L9.69193 12.5038L9.81442 12.1074L14.0633 13.594C14.0633 13.6766 14.0633 13.7592 14.002 13.8418C13.9408 13.9244 14.002 13.9987 14.002 14.073L9.53882 13.5692V13.2058L0.574166 12.1983C0.323328 12.7217 0.133066 13.2765 0.00765573 13.85L9.37805 14.9072V14.5355L13.8412 15.0393V15.5018L9.37805 16.0056V15.6835L0 16.7571C0.120162 17.33 0.305289 17.8848 0.551199 18.4089L9.53882 17.3848V17.0462L14.002 16.5424C14.002 16.6828 14.0556 16.8149 14.0862 16.9471L9.79145 18.4502L9.69193 18.1859L2.14355 20.837C2.37322 21.1178 2.76365 21.572 3.32251 22.1419L10.1589 19.7386L10.0747 19.4578L14.3465 17.9629L14.492 18.3098L10.6029 20.7296L10.4958 20.5314L5.19046 23.8349C5.5809 24.157 6.01727 24.5039 6.48425 24.8508L11.223 21.9024L11.1006 21.6794L15.0508 19.2596C15.1121 19.3504 15.1733 19.4495 15.2422 19.5404L11.8661 22.8274L11.7513 22.687L8.22972 26.1061C8.64312 26.3704 9.07183 26.6429 9.53116 26.932L12.7006 23.8515L12.5704 23.6532L15.9082 20.3497L16.1149 20.5644L13.4738 24.4791L13.3743 24.3965L11.1312 27.7001C11.5369 27.9148 11.958 28.1295 12.402 28.336L14.4843 25.305L14.3542 25.2059L16.9953 21.2912C17.064 21.3428 17.1356 21.3897 17.2097 21.4316L15.3877 25.8501H15.3035L13.9408 29.1536C14.3312 29.327 14.7063 29.4922 15.1427 29.6491H15.1886L16.5207 26.4282L16.4059 26.3786L18.2355 21.9519L18.4422 22.0345L17.5082 26.7668H17.447L16.7733 30.2107C17.1791 30.3264 17.6001 30.4255 18.0288 30.4998L18.7025 27.0559H18.6336L19.5676 22.2492H19.759V27.0889V30.6072C19.958 30.6072 20.1647 30.6072 20.3714 30.6072C20.5781 30.6072 20.7848 30.6072 20.9915 30.6072V27.1137V22.2823H21.1446L22.025 26.9568L22.714 30.4089C23.1121 30.3346 23.4796 30.2438 23.8777 30.1364L23.1963 26.6925L22.293 22.0015L22.4078 21.9602L24.2375 26.3621H24.2911L25.6231 29.5913L26.6949 29.1454L25.3399 25.8418L23.5485 21.3986L23.625 21.349L26.2585 25.305L26.3428 25.2389L28.448 28.3608L29.4586 27.7826L27.2308 24.4791H27.2997L24.6662 20.5644L28.0653 23.7358L28.1571 23.6202L31.3725 26.7586L32.3141 26.1309L28.8308 22.7778L28.915 22.6704L25.5925 19.4412L29.4739 21.8611L29.5581 21.6959L34.3964 24.7104C34.7103 24.4709 35.0088 24.2396 35.2844 24.0084L30.0634 20.7544L30.1476 20.5892L26.3198 18.2107L30.5227 19.6807L30.5839 19.466L37.5658 21.9437C37.8797 21.6133 38.1247 21.3325 38.3314 21.1178L30.8978 18.508L30.9667 18.285L26.9246 16.8728L31.1504 17.3518L31.1811 17.0462Z" fill="#B48D5E"/>
</svg>
